<svg width="26" height="16" viewBox="0 0 26 16" fill="none" xmlns="http://www.w3.org/2000/svg" xmlns:xlink="http://www.w3.org/1999/xlink">
<path d="M0.43,-0.045C0.944,-0.58 1.778,-0.584 2.292,-0.041L13.77,12.052C14.285,12.593 14.283,13.468 13.767,14.005C13.511,14.272 13.174,14.408 12.838,14.408C12.5,14.408 12.163,14.272 11.907,14.002L0.428,1.909C-0.086,1.368 -0.085,0.493 0.43,-0.045ZM23.384,-0.041C23.898,-0.584 24.732,-0.58 25.246,-0.044C25.762,0.493 25.764,1.368 25.251,1.909L17.629,9.94C17.372,10.211 17.034,10.347 16.697,10.347C16.361,10.347 16.024,10.211 15.768,9.944C15.252,9.406 15.25,8.532 15.763,7.99L23.384,-0.041Z" fill="#000000"/>
</svg>
