<svg width="26" height="16" viewBox="0 0 26 16" fill="none" xmlns="http://www.w3.org/2000/svg" xmlns:xlink="http://www.w3.org/1999/xlink">
<path d="M-0.538,-0.083C-0.024,-0.618 0.81,-0.622 1.324,-0.079L12.803,12.014C13.317,12.555 13.315,13.43 12.799,13.967C12.543,14.234 12.206,14.37 11.871,14.37C11.532,14.37 11.195,14.234 10.939,13.964L-0.54,1.871C-1.054,1.33 -1.052,0.455 -0.538,-0.083ZM22.416,-0.079C22.93,-0.622 23.764,-0.618 24.278,-0.082C24.794,0.455 24.796,1.33 24.284,1.871L16.661,9.902C16.405,10.173 16.066,10.309 15.729,10.309C15.394,10.309 15.057,10.173 14.8,9.906C14.284,9.368 14.283,8.494 14.795,7.952L22.416,-0.079Z" fill="#000000"/>
</svg>
