<svg width="588" height="120" viewBox="0 0 588 120" fill="none" xmlns="http://www.w3.org/2000/svg" xmlns:xlink="http://www.w3.org/1999/xlink">
<g opacity="0.5">
<line x1="479.387" y1="0.077" x2="479.387" y2="118.923" stroke="#2396EF" stroke-width="1" stroke-miterlimit="3.999327"/>
</g>
<path d="M453.818,78.174L453.324,79.044L453.818,78.174ZM505.168,75.606L504.59,74.79L505.168,75.606ZM242.344,83.63L241.946,84.548L242.344,83.63ZM285.23,81.262L284.734,80.393L285.23,81.262ZM175.971,54.886L175.573,55.804L175.971,54.886ZM-0.221,47.35L25.71,72.012L27.088,70.562L1.157,45.9L-0.221,47.35ZM78.951,81.47L138.217,55.804L137.422,53.968L78.156,79.635L78.951,81.47ZM175.573,55.804L241.946,84.548L242.742,82.713L176.368,53.968L175.573,55.804ZM285.726,82.13L348.654,46.18L347.662,44.443L284.734,80.393L285.726,82.13ZM395.126,46.091L453.324,79.044L454.31,77.304L396.112,44.35L395.126,46.091ZM505.744,76.423L587.408,18.721L586.254,17.087L504.59,74.79L505.744,76.423ZM453.324,79.044C469.832,88.391 490.252,87.37 505.744,76.423L504.59,74.79C489.73,85.29 470.144,86.269 454.31,77.304L453.324,79.044ZM348.654,46.18C363.046,37.958 380.704,37.924 395.126,46.091L396.112,44.35C381.076,35.836 362.666,35.872 347.662,44.443L348.654,46.18ZM241.946,84.548C256.106,90.68 272.328,89.784 285.726,82.13L284.734,80.393C271.882,87.735 256.324,88.594 242.742,82.713L241.946,84.548ZM138.217,55.804C150.134,50.643 163.656,50.643 175.573,55.804L176.368,53.968C163.944,48.588 149.847,48.588 137.422,53.968L138.217,55.804ZM25.71,72.012C39.953,85.558 60.913,89.282 78.951,81.47L78.156,79.635C60.855,87.127 40.75,83.556 27.088,70.562L25.71,72.012Z" fill="#2396EF"/>
<path d="M486.064,85.25C486.064,89.626 482.627,93.173 478.387,93.173C474.147,93.173 470.709,89.626 470.709,85.25C470.709,80.874 474.147,77.327 478.387,77.327C482.627,77.327 486.064,80.874 486.064,85.25Z" fill="#FFFFFF" stroke="#2396EF" stroke-width="1" stroke-miterlimit="3.999327"/>
</svg>
