<svg width="54" height="52" viewBox="0 0 54 52" fill="none" xmlns="http://www.w3.org/2000/svg" xmlns:xlink="http://www.w3.org/1999/xlink">
<path d="M16.294,17.336C15.927,18.378 16.475,19.52 17.516,19.887C18.558,20.253 19.7,19.706 20.067,18.664L16.294,17.336ZM29.84,20L27.84,19.997L27.84,20L29.84,20ZM23.208,24.103C22.16,24.452 21.594,25.585 21.943,26.633C22.292,27.681 23.425,28.247 24.473,27.898L23.208,24.103ZM20.067,18.664C20.38,17.773 20.999,17.021 21.813,16.543L19.787,13.094C18.158,14.051 16.92,15.554 16.294,17.336L20.067,18.664ZM21.813,16.543C22.628,16.064 23.585,15.889 24.516,16.049L25.193,12.106C23.331,11.787 21.416,12.137 19.787,13.094L21.813,16.543ZM24.516,16.049C25.447,16.208 26.292,16.693 26.9,17.415L29.96,14.839C28.744,13.394 27.055,12.426 25.193,12.106L24.516,16.049ZM26.9,17.415C27.509,18.138 27.842,19.053 27.84,19.997L31.84,20.003C31.843,18.114 31.177,16.285 29.96,14.839L26.9,17.415ZM27.84,20C27.84,20.938 27.11,21.917 25.731,22.836C25.102,23.255 24.459,23.578 23.965,23.798C23.721,23.906 23.521,23.986 23.386,24.037C23.319,24.063 23.268,24.081 23.238,24.092C23.222,24.098 23.212,24.101 23.207,24.103C23.204,24.104 23.203,24.104 23.203,24.104C23.203,24.104 23.204,24.104 23.204,24.104C23.205,24.104 23.205,24.104 23.206,24.103C23.206,24.103 23.207,24.103 23.207,24.103C23.207,24.103 23.208,24.103 23.84,26C24.473,27.898 24.473,27.897 24.474,27.897C24.474,27.897 24.475,27.897 24.475,27.897C24.476,27.896 24.477,27.896 24.478,27.896C24.48,27.895 24.483,27.894 24.486,27.893C24.492,27.891 24.499,27.889 24.508,27.885C24.526,27.879 24.549,27.871 24.578,27.861C24.635,27.841 24.713,27.812 24.81,27.775C25.003,27.702 25.271,27.594 25.59,27.453C26.221,27.172 27.078,26.745 27.95,26.164C29.57,25.084 31.84,23.062 31.84,20L27.84,20Z" fill="#6C7894"/>
<line x1="24" y1="32" x2="24.02" y2="32" stroke="#6C7894" stroke-width="2" stroke-miterlimit="3.999327" stroke-linecap="round" stroke-linejoin="round"/>
<path d="M24,40.5C23.172,40.5 22.5,41.172 22.5,42C22.5,42.828 23.172,43.5 24,43.5L24,40.5ZM2.5,22C2.5,22.828 3.172,23.5 4,23.5C4.828,23.5 5.5,22.828 5.5,22L2.5,22ZM42.5,22C42.5,32.217 34.217,40.5 24,40.5L24,43.5C35.874,43.5 45.5,33.874 45.5,22L42.5,22ZM24,3.5C34.217,3.5 42.5,11.783 42.5,22L45.5,22C45.5,10.126 35.874,0.5 24,0.5L24,3.5ZM24,0.5C20.427,0.5 15.1,1.56 10.624,4.783C6.071,8.061 2.5,13.511 2.5,22L5.5,22C5.5,14.489 8.596,9.939 12.376,7.217C16.233,4.44 20.907,3.5 24,3.5L24,0.5Z" fill="#6C7894"/>
<path d="M20.066,48.449C19.237,48.449 18.566,49.121 18.566,49.949C18.566,50.777 19.237,51.449 20.066,51.449L20.066,48.449ZM20.066,8.449C19.237,8.449 18.566,9.121 18.566,9.949C18.566,10.777 19.237,11.449 20.066,11.449L20.066,8.449ZM38.566,29.949C38.566,40.166 30.283,48.449 20.066,48.449L20.066,51.449C31.94,51.449 41.566,41.823 41.566,29.949L38.566,29.949ZM20.066,11.449C30.283,11.449 38.566,19.732 38.566,29.949L41.566,29.949C41.566,18.075 31.94,8.449 20.066,8.449L20.066,11.449Z" transform="rotate(105.327 30.066 29.949)" fill="#6C7894"/>
</svg>
