<svg width="56" height="46" viewBox="0 0 56 46" fill="none" xmlns="http://www.w3.org/2000/svg" xmlns:xlink="http://www.w3.org/1999/xlink">
<path d="M1.923,30.698L54.018,30.698L54.018,28.57C54.018,28.055 53.917,27.576 53.74,27.148C53.548,26.692 53.266,26.286 52.915,25.936C52.701,25.721 52.459,25.525 52.199,25.352C51.935,25.174 51.652,25.02 51.356,24.887C50.559,24.714 49.766,24.55 48.977,24.395C48.184,24.24 47.387,24.094 46.585,23.958C46.548,23.953 46.521,23.949 46.484,23.939C46.079,23.871 45.691,23.807 45.322,23.748C44.953,23.689 44.561,23.63 44.151,23.566L44.142,23.566C41.353,23.21 38.573,22.937 35.798,22.755C33.018,22.572 30.251,22.481 27.503,22.477C25.872,22.477 24.245,22.504 22.618,22.568C21,22.632 19.373,22.723 17.746,22.85L17.737,22.85C16.215,22.992 14.697,23.169 13.175,23.374C11.658,23.579 10.135,23.821 8.604,24.09L8.436,24.131C8.404,24.14 8.372,24.145 8.344,24.145C8.317,24.149 8.29,24.149 8.262,24.149C7.547,24.277 6.813,24.418 6.057,24.568C5.323,24.714 4.589,24.869 3.86,25.029C3.678,25.129 3.505,25.243 3.341,25.361C3.176,25.484 3.017,25.617 2.876,25.758C2.57,26.063 2.329,26.414 2.165,26.806C2.01,27.175 1.923,27.585 1.923,28.032L1.923,30.698ZM6.471,0L48.85,0C49.401,0 49.93,0.109 50.413,0.31C50.914,0.52 51.365,0.825 51.743,1.199C52.122,1.577 52.427,2.028 52.632,2.529C52.833,3.012 52.942,3.541 52.942,4.092L52.942,23.548C53.174,23.684 53.402,23.835 53.612,23.999C53.849,24.181 54.072,24.372 54.277,24.577C54.806,25.106 55.234,25.721 55.521,26.414C55.795,27.066 55.945,27.79 55.945,28.574L55.945,31.35C55.959,31.395 55.973,31.441 55.982,31.486L55.982,31.495C55.991,31.555 55.995,31.609 55.995,31.664C55.995,31.723 55.991,31.783 55.977,31.842C55.968,31.887 55.954,31.933 55.941,31.979L55.941,44.584C55.941,44.848 55.831,45.09 55.658,45.263C55.485,45.436 55.243,45.546 54.979,45.546L52.997,45.546C52.773,45.546 52.568,45.468 52.404,45.34C52.24,45.213 52.117,45.031 52.067,44.821C51.702,43.773 51.333,42.943 50.937,42.296C50.545,41.658 50.126,41.202 49.643,40.879C49.155,40.555 48.572,40.35 47.865,40.227C47.145,40.1 46.307,40.059 45.309,40.063L8.96,40.109L8.941,40.109C8.226,40.095 7.638,40.186 7.146,40.378C6.658,40.569 6.262,40.856 5.934,41.225C5.564,41.635 5.255,42.16 4.972,42.77C4.685,43.395 4.425,44.105 4.165,44.885C4.102,45.085 3.974,45.245 3.814,45.359C3.664,45.468 3.482,45.532 3.295,45.541C3.281,45.546 3.268,45.546 3.254,45.546L0.962,45.546C0.697,45.546 0.456,45.436 0.283,45.263C0.109,45.09 0,44.848 0,44.584L0,28.036C0,27.321 0.137,26.665 0.383,26.072C0.647,25.443 1.035,24.883 1.518,24.4C1.654,24.263 1.805,24.126 1.964,23.999C2.101,23.889 2.238,23.785 2.383,23.689L2.383,4.051C2.383,3.5 2.493,2.976 2.693,2.502C2.903,2.005 3.208,1.559 3.587,1.185C3.965,0.811 4.416,0.515 4.913,0.31C5.396,0.109 5.92,0 6.471,0ZM48.85,1.923L6.471,1.923C6.175,1.923 5.893,1.982 5.633,2.087C5.364,2.197 5.127,2.356 4.926,2.552C4.73,2.743 4.571,2.98 4.462,3.236C4.361,3.486 4.307,3.76 4.307,4.051L4.307,22.764C4.443,22.718 4.58,22.682 4.721,22.645C4.945,22.586 5.168,22.536 5.391,22.499C5.701,22.445 6.038,22.385 6.403,22.322C6.676,22.276 6.968,22.226 7.269,22.18L7.269,17.404C7.269,16.684 7.415,15.996 7.674,15.367C7.948,14.711 8.344,14.123 8.837,13.631C9.329,13.139 9.917,12.742 10.573,12.469C11.202,12.209 11.89,12.063 12.61,12.063L21.643,12.063C22.363,12.063 23.051,12.209 23.68,12.469C24.336,12.742 24.924,13.139 25.416,13.631C25.908,14.123 26.305,14.711 26.578,15.367C26.838,15.996 26.984,16.684 26.984,17.404L26.984,20.453C27.303,20.449 27.622,20.449 27.945,20.449L27.945,17.404C27.945,16.684 28.091,15.996 28.351,15.367C28.624,14.711 29.021,14.123 29.513,13.631C30.005,13.139 30.593,12.742 31.249,12.469C31.878,12.209 32.566,12.063 33.286,12.063L42.319,12.063C43.039,12.063 43.727,12.209 44.356,12.469C45.012,12.742 45.6,13.139 46.092,13.631C46.585,14.123 46.981,14.711 47.255,15.367C47.514,15.996 47.66,16.684 47.66,17.404L47.66,22.117C48.002,22.167 48.367,22.226 48.758,22.29C49.191,22.358 49.606,22.426 50.007,22.495C50.212,22.531 50.422,22.572 50.632,22.622C50.764,22.654 50.891,22.686 51.014,22.723L51.014,4.092C51.014,3.801 50.955,3.523 50.85,3.268C50.741,3.003 50.577,2.766 50.376,2.561C50.176,2.361 49.934,2.197 49.674,2.087C49.419,1.982 49.141,1.923 48.85,1.923ZM19.692,20.763C20.608,20.695 21.529,20.635 22.463,20.59C23.324,20.544 24.195,20.512 25.065,20.49L25.065,17.404C25.065,16.944 24.974,16.502 24.805,16.101C24.632,15.682 24.377,15.308 24.058,14.989C23.743,14.674 23.365,14.419 22.946,14.242C22.545,14.073 22.103,13.982 21.643,13.982L12.61,13.982C12.15,13.982 11.708,14.073 11.307,14.242C10.887,14.415 10.514,14.67 10.195,14.989C9.88,15.303 9.625,15.682 9.447,16.101C9.279,16.502 9.188,16.944 9.188,17.404L9.188,21.875C9.926,21.766 10.673,21.665 11.439,21.565C12.264,21.46 13.084,21.365 13.895,21.273C14.21,21.237 14.547,21.196 14.898,21.16C15.226,21.123 15.568,21.091 15.932,21.055C16.552,20.995 17.167,20.941 17.773,20.891C18.398,20.85 19.036,20.804 19.692,20.763ZM29.868,20.462C30.42,20.471 30.971,20.485 31.523,20.503C32.133,20.521 32.744,20.549 33.35,20.576L33.355,20.576C34.353,20.613 35.328,20.658 36.276,20.713C37.224,20.768 38.149,20.836 39.033,20.913C40.318,21.027 41.563,21.164 42.743,21.324C43.8,21.469 44.803,21.633 45.742,21.816L45.742,17.404C45.742,16.944 45.65,16.502 45.482,16.101C45.309,15.682 45.053,15.308 44.734,14.989C44.42,14.674 44.042,14.419 43.622,14.242C43.221,14.073 42.779,13.982 42.319,13.982L33.291,13.982C32.831,13.982 32.389,14.073 31.988,14.242C31.568,14.415 31.195,14.67 30.876,14.989C30.561,15.303 30.306,15.682 30.128,16.101C29.96,16.502 29.868,16.944 29.868,17.404L29.868,20.462ZM54.022,32.626L1.923,32.626L1.923,43.622L2.575,43.622C2.83,42.902 3.094,42.232 3.391,41.635C3.71,40.997 4.07,40.432 4.507,39.945C5.027,39.361 5.637,38.91 6.371,38.609C7.105,38.313 7.962,38.163 8.992,38.186L45.309,38.14C46.48,38.14 47.482,38.195 48.357,38.363C49.246,38.532 50.012,38.819 50.7,39.275C51.338,39.699 51.885,40.259 52.377,40.993C52.846,41.695 53.266,42.556 53.667,43.618L54.013,43.618L54.013,32.626L54.022,32.626Z" fill="#2396EF"/>
</svg>
