<svg width="34" height="38" viewBox="0 0 34 38" fill="none" xmlns="http://www.w3.org/2000/svg" xmlns:xlink="http://www.w3.org/1999/xlink">
<path d="M24.279,0C30.348,0 33.984,3.708 34,9.898L34,28.102C34,34.292 30.381,38 24.295,38L18.9,38C18.208,37.922 17.684,37.326 17.684,36.616C17.684,35.906 18.208,35.31 18.9,35.232L24.279,35.232C28.917,35.232 31.253,32.833 31.253,28.102L31.253,9.898C31.253,5.167 28.917,2.768 24.279,2.768L9.705,2.768C5.066,2.768 2.714,5.167 2.714,9.898L2.714,28.102C2.714,32.833 5.066,35.232 9.705,35.232C10.397,35.31 10.921,35.906 10.921,36.616C10.921,37.326 10.397,37.922 9.705,38C3.635,38 0,34.292 0,28.102L0,9.898C0,3.691 3.635,0 9.705,0L24.279,0ZM23.785,25.669C24.53,25.669 25.134,26.285 25.134,27.045C25.134,27.804 24.53,28.42 23.785,28.42L10.165,28.42C9.421,28.42 8.817,27.804 8.817,27.045C8.817,26.285 9.421,25.669 10.165,25.669L23.785,25.669ZM23.785,17.616C24.306,17.557 24.813,17.808 25.091,18.26C25.37,18.713 25.37,19.287 25.091,19.74C24.813,20.192 24.306,20.443 23.785,20.384L10.165,20.384C9.474,20.306 8.95,19.71 8.95,19C8.95,18.29 9.474,17.694 10.165,17.616L23.785,17.616ZM15.363,9.58C16.055,9.658 16.579,10.254 16.579,10.964C16.579,11.674 16.055,12.27 15.363,12.348L10.182,12.348C9.49,12.27 8.966,11.674 8.966,10.964C8.966,10.254 9.49,9.658 10.182,9.58L15.363,9.58Z" fill="#6C7894"/>
</svg>
