<svg width="38" height="36" viewBox="0 0 38 36" fill="none" xmlns="http://www.w3.org/2000/svg" xmlns:xlink="http://www.w3.org/1999/xlink">
<path d="M24.032,23.688C24.818,23.688 25.457,24.278 25.457,25.005L25.457,26.614C25.457,30.797 21.774,34.2 17.246,34.2L8.227,34.2C3.692,34.2 0,30.788 0,26.595C0,25.869 0.638,25.28 1.425,25.28C2.211,25.28 2.85,25.869 2.85,26.595C2.85,29.338 5.263,31.566 8.227,31.566L17.246,31.566C20.203,31.566 22.607,29.345 22.607,26.614L22.607,25.005C22.607,24.278 23.245,23.688 24.032,23.688ZM36.575,15.782C37.152,15.782 37.672,16.103 37.892,16.598C38.112,17.09 37.988,17.658 37.581,18.034L32.174,23.009C31.895,23.263 31.532,23.393 31.168,23.393C30.803,23.393 30.437,23.263 30.159,23.005C29.604,22.489 29.604,21.656 30.163,21.143L33.125,18.417L14.343,18.417C13.557,18.417 12.917,17.827 12.917,17.1C12.917,16.374 13.557,15.782 14.343,15.782L36.575,15.782ZM17.228,0C21.765,0 25.457,3.412 25.457,7.605L25.457,9.197C25.457,9.922 24.819,10.512 24.032,10.512C23.246,10.512 22.607,9.922 22.607,9.197L22.607,7.605C22.607,4.862 20.194,2.633 17.228,2.633L8.211,2.633C5.254,2.633 2.85,4.857 2.85,7.586L2.85,20.608C2.85,21.335 2.212,21.925 1.425,21.925C0.639,21.925 0,21.335 0,20.608L0,7.586C0,3.403 3.683,0 8.211,0L17.228,0ZM30.155,11.201C30.711,10.681 31.61,10.677 32.171,11.191L33.533,12.435C34.093,12.948 34.097,13.781 33.544,14.298C33.264,14.558 32.898,14.689 32.531,14.689C32.169,14.689 31.806,14.561 31.529,14.308L30.165,13.061C29.606,12.55 29.602,11.716 30.155,11.201Z" fill="#6C7894"/>
</svg>
