<svg width="56" height="38" viewBox="0 0 56 38" fill="none" xmlns="http://www.w3.org/2000/svg" xmlns:xlink="http://www.w3.org/1999/xlink">
<path d="M42.2,21.916C42.465,24.176 40.14,26.127 38.103,25.507C37.821,26.004 37.597,26.628 37.429,27.385C37.041,29.144 37.155,28.606 37.324,30.306C37.552,32.576 37.306,34.12 35.847,34.781L35.847,35.652L6.325,35.652L6.325,34.781C5.191,34.376 4.698,33.264 4.872,31.427C5.25,27.977 5.013,26.897 4.147,25.598C2.625,25.653 1.526,25.288 0.838,24.523C-0.561,22.969 -0.137,20.686 1.613,19.587C1.973,19.359 2.397,19.191 2.889,19.086C3.864,18.881 4.562,18.876 5.478,19.3C7.396,20.189 8.804,22.436 9.707,25.165L19.551,25.43C20.225,25.521 20.653,25.817 20.936,26.227C21.205,25.831 21.588,25.53 22.176,25.393C25.238,25.261 27.435,25.667 29.672,25.667L32.279,25.667C32.812,25.671 33.09,25.43 33.181,25.001C33.815,23.06 34.927,21.515 36.289,20.175C37.192,19.291 37.356,18.963 38.659,19.004C40.168,19.054 41.817,20.098 42.2,21.916ZM44.447,0L53.379,0L56,10.336L41.845,10.336L44.447,0ZM49.784,11.895L49.784,34.79L53.243,34.79C53.721,34.79 54.108,35.178 54.108,35.656C54.108,36.135 53.721,36.522 53.243,36.522L44.602,36.522C44.123,36.522 43.736,36.135 43.736,35.656C43.736,35.178 44.123,34.79 44.602,34.79L48.061,34.79L48.061,11.895L49.784,11.895ZM5.883,18.493L5.888,18.493C6.877,16.283 8.431,15.727 10.545,16.47L12.815,24.263L10.363,24.263L9.643,22.791L8.85,21.169C8.476,20.531 8.048,19.993 7.556,19.551C7.054,19.104 6.498,18.753 5.883,18.493ZM11.498,16.52C11.525,16.507 11.553,16.484 11.566,16.447C12.4,14.52 14.706,13.977 16.593,14.802C16.593,14.798 16.597,14.793 16.597,14.793L17.112,24.723L13.849,24.723L11.498,16.52ZM17.605,14.597C18.215,12.059 24.003,12.578 24.532,14.328C24.609,14.324 23.935,23.698 23.885,24.742L23.023,24.742C22.431,24.742 22.33,24.732 21.765,24.91C21.487,24.997 21.209,25.083 20.931,25.17L20.198,24.896C19.71,24.714 19.651,24.742 19.131,24.742L18.047,24.742L17.627,14.602L17.605,14.597ZM25.288,15.021C25.306,15.021 25.329,15.016 25.347,15.007C27.444,13.891 30.356,14.702 30.638,16.16L30.497,16.215L28.2,24.723L24.805,24.723L25.288,15.021ZM31.336,16.83C31.368,16.835 31.399,16.826 31.431,16.798C33.058,15.522 35.446,16.06 36.54,18.726L36.517,18.726C34.362,20.558 32.821,22.545 32.261,24.769L29.139,24.769L31.336,16.83Z" clip-rule="evenodd" fill-rule="evenodd" fill="#2396EF"/>
</svg>
