<svg width="32" height="40" viewBox="0 0 32 40" fill="none" xmlns="http://www.w3.org/2000/svg" xmlns:xlink="http://www.w3.org/1999/xlink">
<path d="M32,32.66C32,39.238 22.869,40 16,40C15.308,40 14.625,39.99 13.955,39.97C13.158,39.95 12.53,39.288 12.554,38.494C12.577,37.702 13.265,37.106 14.038,37.1C14.682,37.118 15.336,37.126 16,37.126C24.698,37.126 29.11,35.624 29.11,32.66C29.11,29.668 24.698,28.15 16,28.15C7.302,28.15 2.89,29.654 2.89,32.62C2.89,33.59 3.236,34.996 6.241,36.008C6.998,36.262 7.402,37.076 7.147,37.826C6.889,38.576 6.072,38.986 5.313,38.726C0.922,37.248 0,34.59 0,32.62C0,26.175 8.762,25.312 15.577,25.279L16.762,25.28C21.306,25.303 32,25.704 32,32.66ZM16,0C21.941,0 26.773,4.804 26.773,10.708C26.773,16.61 21.941,21.413 16,21.413C10.059,21.413 5.225,16.61 5.225,10.708C5.225,4.804 10.059,0 16,0ZM16,2.874C11.653,2.874 8.117,6.388 8.117,10.708C8.117,15.026 11.653,18.54 16,18.54C20.347,18.54 23.883,15.026 23.883,10.708C23.883,6.388 20.347,2.874 16,2.874Z" fill="#6C7894"/>
</svg>
