<svg width="38" height="38" viewBox="0 0 38 38" fill="none" xmlns="http://www.w3.org/2000/svg" xmlns:xlink="http://www.w3.org/1999/xlink">
<path d="M26.119,0C33.421,0 38,4.545 38,11.881L38,16.293L37.987,16.49C37.89,17.2 37.282,17.747 36.546,17.747L36.529,17.747L36.3,17.728C35.998,17.68 35.718,17.535 35.501,17.314C35.231,17.037 35.083,16.663 35.092,16.276L35.092,11.881C35.092,6.099 31.901,2.908 26.119,2.908L11.881,2.908C6.083,2.908 2.908,6.099 2.908,11.881L2.908,26.135C2.908,31.917 6.099,35.092 11.881,35.092L26.119,35.092C31.917,35.092 35.092,31.901 35.092,26.135C35.092,25.333 35.743,24.682 36.546,24.682C37.349,24.682 38,25.333 38,26.135C38,33.455 33.455,38 26.135,38L11.881,38C4.545,38 0,33.455 0,26.135L0,11.881C0,4.545 4.545,0 11.881,0L26.119,0ZM10.929,14.354C11.314,14.368 11.679,14.533 11.942,14.815C12.206,15.098 12.346,15.473 12.332,15.858L12.332,28.007C12.305,28.81 11.631,29.438 10.828,29.411C10.026,29.383 9.397,28.71 9.425,27.907L9.425,15.741L9.451,15.514C9.509,15.216 9.661,14.942 9.887,14.734C10.169,14.473 10.545,14.336 10.929,14.354ZM19.067,8.656C19.87,8.656 20.521,9.307 20.521,10.11L20.521,27.923C20.521,28.726 19.87,29.377 19.067,29.377C18.264,29.377 17.613,28.726 17.613,27.923L17.613,10.11C17.613,9.307 18.264,8.656 19.067,8.656ZM27.121,20.771C27.924,20.771 28.575,21.422 28.575,22.225L28.575,27.907C28.575,28.71 27.924,29.361 27.121,29.361C26.318,29.361 25.668,28.71 25.668,27.907L25.668,22.225C25.668,21.422 26.318,20.771 27.121,20.771Z" fill="#6C7894"/>
</svg>
