<svg width="56" height="42" viewBox="0 0 56 42" fill="none" xmlns="http://www.w3.org/2000/svg" xmlns:xlink="http://www.w3.org/1999/xlink">
<path d="M43.333,9.772L43.307,9.737C43.171,9.54 42.9,9.497 42.707,9.632L39.38,11.962C39.182,12.097 39.139,12.369 39.274,12.561L39.301,12.597C39.436,12.794 39.708,12.837 39.901,12.702L43.228,10.372C43.421,10.237 43.469,9.965 43.333,9.772ZM52.108,22.908L50.304,31.323C49.857,33.416 48.846,35.014 47.41,36.109C46.416,36.866 45.229,37.37 43.894,37.619L45.076,40.15C45.33,40.697 45.093,41.35 44.546,41.603C43.999,41.857 43.346,41.621 43.092,41.074L41.56,37.799L15.368,37.799L13.836,41.074C13.582,41.621 12.929,41.857 12.382,41.603C11.835,41.35 11.598,40.697 11.852,40.15L12.969,37.759C11.261,37.61 9.86,37.063 8.731,36.126C7.413,35.031 6.511,33.442 5.972,31.371L3.752,22.908L2.018,22.908C1.467,22.908 0.963,22.68 0.595,22.317L0.595,22.312L0.591,22.317C0.228,21.949 0,21.445 0,20.889L0,19.055C0,18.499 0.228,17.995 0.591,17.627C0.617,17.601 0.648,17.57 0.679,17.548C1.033,17.229 1.502,17.036 2.014,17.036L2.281,17.036C2.356,16.239 2.662,15.486 3.135,14.829C3.617,14.155 4.282,13.582 5.04,13.188C5.801,12.789 6.664,12.566 7.535,12.592C8.301,12.618 9.063,12.829 9.768,13.275C10.075,12.829 10.456,12.43 10.894,12.102C11.752,11.458 12.824,11.073 13.985,11.073C14.948,11.073 15.85,11.336 16.616,11.791C17.216,12.146 17.733,12.623 18.135,13.183C19.357,13.28 20.46,13.801 21.288,14.597C21.967,15.254 22.457,16.095 22.671,17.032L52.116,17.032L52.116,6.173C51.477,3.034 49.664,2.18 47.243,2.526C48.333,4.426 48.193,6.357 46.648,8.328C46.845,8.647 46.827,8.997 46.613,9.37L46.131,9.926C45.938,10.123 45.698,10.14 45.387,9.891L37.987,2.417C37.786,2.176 37.825,1.966 38.062,1.782C38.587,1.138 38.653,1.029 39.585,1.186C41.661,-0.162 43.635,-0.403 45.496,0.665C50.168,-1.252 54.144,1.156 54.682,6.06L54.682,17.163C54.958,17.264 55.203,17.426 55.405,17.627C55.768,17.991 55.996,18.499 55.996,19.055L55.996,20.889C55.996,21.445 55.768,21.949 55.405,22.317C55.041,22.68 54.533,22.908 53.982,22.908L52.108,22.908ZM39.143,6.173L39.117,6.138C38.981,5.941 38.71,5.898 38.517,6.033L35.189,8.363C34.992,8.498 34.949,8.77 35.084,8.962L35.111,8.997C35.246,9.194 35.518,9.238 35.71,9.103L39.038,6.773C39.235,6.637 39.279,6.366 39.143,6.173ZM37.23,4.247L37.203,4.212C37.068,4.015 36.796,3.971 36.604,4.107L33.276,6.436C33.079,6.572 33.035,6.843 33.171,7.036L33.197,7.071C33.333,7.268 33.604,7.312 33.797,7.176L37.125,4.847C37.317,4.711 37.365,4.44 37.23,4.247ZM41.052,8.034L41.026,7.999C40.89,7.802 40.619,7.758 40.426,7.894L37.098,10.223C36.901,10.359 36.858,10.631 36.993,10.823L37.02,10.858C37.155,11.055 37.427,11.099 37.619,10.963L40.951,8.634C41.14,8.498 41.188,8.231 41.052,8.034ZM4.505,17.036L20.377,17.036C20.237,16.712 20.031,16.423 19.777,16.182C19.256,15.679 18.534,15.368 17.733,15.368C17.61,15.368 17.741,15.364 17.658,15.364L17.584,15.368C17.172,15.386 16.765,15.171 16.564,14.781C16.327,14.33 15.959,13.949 15.508,13.682C15.071,13.424 14.55,13.271 13.993,13.271C13.319,13.271 12.702,13.49 12.216,13.853C11.73,14.221 11.366,14.733 11.209,15.32C11.156,15.543 11.029,15.753 10.837,15.911C10.368,16.292 9.676,16.222 9.295,15.753C8.757,15.092 8.109,14.803 7.474,14.781C6.992,14.764 6.502,14.895 6.06,15.127C5.613,15.364 5.219,15.705 4.926,16.108C4.72,16.397 4.571,16.712 4.505,17.036ZM3.722,19.234C3.547,19.278 3.371,19.274 3.205,19.234L2.198,19.234L2.198,20.705L53.802,20.705L53.802,19.234L3.722,19.234ZM6.016,22.908L8.091,30.819C8.512,32.431 9.177,33.643 10.132,34.432C11.064,35.207 12.321,35.601 13.954,35.601L41.866,35.601C43.557,35.601 44.997,35.185 46.074,34.366C47.099,33.587 47.821,32.418 48.154,30.868L49.861,22.908L6.016,22.908Z" fill="#2396EF"/>
</svg>
