<svg width="38" height="38" viewBox="0 0 38 38" fill="none" xmlns="http://www.w3.org/2000/svg" xmlns:xlink="http://www.w3.org/1999/xlink">
<path d="M4.303,16.539C4.939,16.103 5.812,16.259 6.249,16.903C11.087,23.982 19.931,31.957 25.561,34.315C27.839,35.379 29.535,35.444 30.795,34.535C31.776,33.934 34.571,31.139 34.521,29.685C34.504,29.514 34.31,29.193 33.98,28.851C32.905,27.742 29.3,24.995 28.546,24.709C27.945,24.587 27.333,24.944 26.391,25.54L25.906,25.844C25.244,26.244 24.382,26.026 23.986,25.363C23.587,24.694 23.801,23.828 24.464,23.428L24.9,23.155C25.945,22.494 27.378,21.594 29.198,21.971C30.625,22.268 35.122,25.994 35.98,26.881C36.788,27.712 37.238,28.599 37.314,29.52C37.435,32.979 32.83,36.598 32.304,36.903C31.298,37.632 30.121,38 28.798,38C27.481,38 26.018,37.635 24.434,36.895C18.34,34.343 9.124,26.081 3.945,18.499C3.506,17.86 3.667,16.982 4.303,16.539ZM8.357,0.406C9.318,0.485 10.199,0.938 11.027,1.752C11.906,2.614 15.606,7.145 15.903,8.584C16.222,10.127 15.533,11.332 15.032,12.211C14.537,13.077 14.365,13.447 14.535,13.915C15.785,16.993 17.715,19.506 20.25,21.33C20.879,21.785 21.025,22.662 20.575,23.298C20.303,23.681 19.873,23.888 19.437,23.888C19.155,23.888 18.87,23.803 18.623,23.625C15.651,21.484 13.397,18.56 11.923,14.928C11.275,13.134 12.044,11.788 12.606,10.805C13.028,10.069 13.261,9.629 13.162,9.159C12.901,8.481 10.171,4.849 9.072,3.77C8.732,3.434 8.413,3.236 8.176,3.218C6.919,3.159 4.109,5.848 3.489,6.882C2.528,8.212 2.595,9.918 3.627,12.202C3.946,12.91 3.637,13.744 2.933,14.068C2.231,14.391 1.399,14.077 1.08,13.368C-0.386,10.123 -0.36,7.414 1.162,5.32C1.483,4.775 5.034,0.187 8.357,0.406ZM23.73,6.685C27.611,7.446 30.608,10.464 31.365,14.373C31.513,15.136 31.018,15.878 30.259,16.026C30.169,16.043 30.078,16.051 29.988,16.051C29.334,16.051 28.748,15.585 28.617,14.912C28.08,12.135 25.951,9.993 23.195,9.453C22.437,9.305 21.941,8.563 22.088,7.8C22.238,7.037 22.982,6.556 23.73,6.685ZM23.618,0.011C31.227,0.861 37.138,6.806 37.991,14.467C38.079,15.241 37.524,15.94 36.758,16.025C36.703,16.031 36.651,16.034 36.599,16.034C35.897,16.034 35.291,15.503 35.211,14.783C34.502,8.439 29.609,3.516 23.308,2.811C22.539,2.725 21.987,2.029 22.071,1.255C22.159,0.481 22.851,-0.088 23.618,0.011Z" fill="#6C7894"/>
</svg>
