<svg width="38" height="40" viewBox="0 0 38 40" fill="none" xmlns="http://www.w3.org/2000/svg" xmlns:xlink="http://www.w3.org/1999/xlink">
<path d="M2.999,10.059C3.63,9.864 4.327,10.087 4.725,10.634C5.167,11.242 5.114,12.078 4.6,12.626L3.191,13.669C2.524,14.224 2.136,15.045 2.13,15.913L2.13,31.826C2.149,34.418 4.251,36.512 6.843,36.522L14.843,36.522L14.843,36.556C15.708,36.556 16.409,37.257 16.409,38.122C16.409,38.986 15.708,39.687 14.843,39.687L6.843,39.687C2.516,39.677 -0.99,36.171 -1,31.843L-1,15.913C-0.972,14.072 -0.108,12.344 1.348,11.217L2.791,10.139L2.999,10.059ZM13.243,1.6C15.884,-0.523 19.646,-0.523 22.287,1.6L34.304,11.182C35.728,12.328 36.564,14.051 36.583,15.878L36.565,31.826C36.565,36.158 33.054,39.669 28.722,39.669L25.243,39.669C23.147,39.669 21.444,37.975 21.435,35.878L21.435,28.678L21.419,28.497C21.333,28.026 20.921,27.669 20.426,27.669L15.209,27.669C14.938,27.669 14.679,27.778 14.489,27.971C14.3,28.164 14.195,28.425 14.2,28.695L14.2,31.443C14.2,32.308 13.499,33.009 12.635,33.009C11.77,33.009 11.07,32.308 11.07,31.443L11.07,28.695C11.07,27.593 11.507,26.536 12.287,25.756C13.066,24.977 14.124,24.539 15.226,24.539L20.443,24.539C22.732,24.549 24.583,26.407 24.583,28.695L24.583,35.878C24.583,36.243 24.878,36.539 25.243,36.539L28.809,36.539C31.402,36.539 33.504,34.437 33.504,31.843L33.504,15.913C33.492,15.03 33.083,14.2 32.391,13.652L20.374,4.069C18.859,2.822 16.672,2.822 15.157,4.069L11.296,6.956C10.58,7.47 9.583,7.307 9.07,6.591C8.556,5.876 8.719,4.879 9.435,4.365L13.243,1.6Z" fill="#2990F1"/>
</svg>
