<svg width="48" height="56" viewBox="0 0 48 56" fill="none" xmlns="http://www.w3.org/2000/svg" xmlns:xlink="http://www.w3.org/1999/xlink">
<path d="M17.164,0.308C18.549,6.433 21.514,11.912 24.623,16.873C25.086,16.15 25.575,15.41 26.077,14.656C28.868,10.441 32.047,5.634 33.283,0.096C33.396,-0.423 33.894,-0.744 34.396,-0.626C34.754,-0.54 35.016,-0.256 35.095,0.091C36.339,5.602 39.514,10.409 42.305,14.629C45.078,18.827 47.488,22.478 47.488,25.949C47.488,32.39 44.025,36.52 39.597,38.33C38.056,38.961 36.396,39.304 34.728,39.363C32.44,60.721 -0.5,59.931 -0.5,36.985C-0.5,27.597 13.61,16.209 17.164,0.308ZM25.737,18.619C30.317,25.701 34.85,31.69 34.85,36.985C34.85,37.138 34.842,37.282 34.842,37.431C36.239,37.359 37.623,37.066 38.907,36.538C42.676,34.999 45.619,31.469 45.619,25.949C45.619,23.07 43.361,19.648 40.763,15.713C38.409,12.147 35.789,8.18 34.187,3.653C32.588,8.207 29.964,12.174 27.606,15.735C26.955,16.728 26.317,17.689 25.737,18.619ZM6.404,34.317C6.317,33.297 7.042,32.399 8.029,32.304C9.016,32.209 9.885,32.963 9.976,33.983C10.199,36.447 10.719,38.713 11.719,40.672C12.684,42.563 14.112,44.188 16.182,45.443C17.038,45.957 17.321,47.095 16.824,47.975C16.321,48.86 15.225,49.153 14.374,48.638C11.679,47.004 9.81,44.883 8.548,42.401C7.308,39.982 6.671,37.246 6.404,34.317Z" clip-rule="evenodd" fill-rule="evenodd" fill="#FFFFFF"/>
</svg>
