<svg width="40" height="36" viewBox="0 0 40 36" fill="none" xmlns="http://www.w3.org/2000/svg" xmlns:xlink="http://www.w3.org/1999/xlink">
<path d="M28.395,0C34.796,0.02 39.981,5.242 40,11.691L40,14.614L39.987,14.807C39.893,15.503 39.301,16.04 38.585,16.04L38.567,16.004L38.344,15.986C38.051,15.939 37.779,15.8 37.566,15.586C37.301,15.319 37.152,14.956 37.152,14.578L37.152,11.691C37.104,6.839 33.211,2.918 28.395,2.869L11.605,2.869C6.789,2.918 2.896,6.839 2.848,11.691L2.848,24.309C2.896,29.161 6.789,33.082 11.605,33.131L28.395,33.131C33.211,33.082 37.104,29.161 37.152,24.309C37.233,23.578 37.846,23.025 38.576,23.025C39.306,23.025 39.919,23.578 40,24.309C39.981,30.758 34.796,35.98 28.395,36L11.605,36C5.2,35.99 0.01,30.762 0,24.309L0,11.691C0,5.234 5.196,0 11.605,0L28.395,0ZM8.589,10.774C8.961,10.734 9.334,10.846 9.624,11.085L17.939,17.715C18.978,18.536 20.439,18.536 21.477,17.715L29.704,11.085L29.721,11.085L29.895,10.966C30.492,10.616 31.269,10.745 31.72,11.299C31.957,11.596 32.066,11.976 32.023,12.354C31.979,12.733 31.788,13.078 31.49,13.313L23.264,19.96C21.172,21.656 18.191,21.656 16.099,19.96L7.855,13.313L7.703,13.167C7.238,12.652 7.2,11.86 7.643,11.299C7.875,11.003 8.216,10.814 8.589,10.774Z" fill="#6C7894"/>
</svg>
