<svg width="40" height="40" viewBox="0 0 40 40" fill="none" xmlns="http://www.w3.org/2000/svg" xmlns:xlink="http://www.w3.org/1999/xlink">
<path d="M27.494,0C35.216,0 40,4.786 40,12.512L40,27.512C40,35.216 35.216,40 27.494,40L12.488,40C4.784,40 0,35.216 0.002,27.506C0.002,26.662 0.686,25.976 1.532,25.976C2.376,25.976 3.062,26.662 3.062,27.506C3.062,33.574 6.404,36.934 12.508,36.934L27.494,36.934C33.58,36.934 36.94,33.592 36.94,27.506L36.94,12.506C36.94,6.42 33.6,3.06 27.494,3.06L12.506,3.06C6.42,3.06 3.06,6.42 3.06,12.506L3.06,17.168C3.06,18.004 2.382,18.68 1.548,18.68L1.526,18.68C0.682,18.68 -0.002,17.994 0,17.15L0,12.506C0,4.786 4.82,0 12.508,0L27.494,0ZM19.989,17.251C20.817,17.251 21.489,17.923 21.489,18.751L21.489,27.591C21.489,28.419 20.817,29.091 19.989,29.091C19.161,29.091 18.489,28.419 18.489,27.591L18.489,18.751C18.489,17.923 19.161,17.251 19.989,17.251ZM20.01,10.908C20.838,10.908 21.51,11.58 21.51,12.408C21.51,13.236 20.838,13.908 20.01,13.908L19.99,13.908C19.162,13.908 18.5,13.236 18.5,12.408C18.5,11.58 19.182,10.908 20.01,10.908Z" fill="#6C7894"/>
</svg>
