<svg width="56" height="48" viewBox="0 0 56 48" fill="none" xmlns="http://www.w3.org/2000/svg" xmlns:xlink="http://www.w3.org/1999/xlink">
<path d="M11.694,8.294C11.512,8.466 11.27,8.552 11.033,8.552C10.792,8.552 10.555,8.466 10.372,8.294C10.19,8.122 10.099,7.894 10.099,7.671C10.099,7.443 10.19,7.22 10.372,7.048C10.705,6.734 10.801,6.45 10.764,6.18C10.728,5.883 10.55,5.565 10.354,5.225C10.017,4.628 9.652,3.992 9.538,3.219C9.42,2.436 9.557,1.538 10.227,0.447L10.231,0.429C10.359,0.227 10.564,0.09 10.787,0.03C11.015,-0.03 11.27,-0.005 11.493,0.116C11.717,0.236 11.867,0.434 11.931,0.649C11.995,0.863 11.967,1.104 11.84,1.315C11.43,1.989 11.352,2.548 11.43,3.038C11.512,3.532 11.762,3.975 11.999,4.387C12.35,5.002 12.674,5.574 12.715,6.205C12.76,6.854 12.51,7.525 11.694,8.294ZM6.421,18.376L49.492,18.376C49.665,18.376 49.834,18.411 49.989,18.471C50.139,18.531 50.271,18.613 50.39,18.716C50.399,18.72 50.408,18.729 50.417,18.737C50.654,18.961 50.8,19.266 50.8,19.605L50.8,22.343L55.066,22.343C55.326,22.343 55.558,22.442 55.727,22.601C55.895,22.76 56,22.983 56,23.224C56,23.469 55.895,23.688 55.727,23.847L55.713,23.86C55.544,24.01 55.316,24.105 55.066,24.105L50.8,24.105L50.8,42.198C50.8,42.98 50.632,43.728 50.331,44.411C50.016,45.12 49.561,45.761 48.995,46.293C48.43,46.826 47.751,47.26 46.999,47.553C46.275,47.836 45.482,47.995 44.652,47.995L11.27,47.995C10.441,47.995 9.648,47.836 8.923,47.553C8.171,47.256 7.492,46.826 6.927,46.289C6.362,45.756 5.902,45.116 5.587,44.407C5.286,43.724 5.118,42.976 5.118,42.194L5.118,24.114L0.939,24.114C0.679,24.114 0.447,24.015 0.278,23.856C0.105,23.692 0,23.473 0,23.228C0,22.983 0.105,22.764 0.273,22.605C0.442,22.446 0.679,22.347 0.934,22.347L5.118,22.347L5.118,19.61C5.118,19.446 5.154,19.287 5.218,19.141C5.286,18.991 5.382,18.853 5.501,18.741C5.738,18.518 6.066,18.376 6.421,18.376ZM48.923,20.147L6.995,20.147L6.995,42.202C6.995,42.748 7.109,43.264 7.319,43.741C7.538,44.235 7.857,44.678 8.253,45.051C8.65,45.425 9.119,45.726 9.643,45.932C10.145,46.13 10.696,46.238 11.275,46.238L44.657,46.238C45.231,46.238 45.783,46.13 46.284,45.932C46.803,45.726 47.277,45.425 47.674,45.056C48.07,44.682 48.389,44.239 48.604,43.745C48.813,43.272 48.927,42.752 48.927,42.211L48.927,20.147L48.923,20.147ZM9.142,23.142C9.142,22.897 9.247,22.678 9.415,22.519C9.584,22.36 9.821,22.261 10.076,22.261C10.336,22.261 10.568,22.36 10.737,22.519C10.906,22.678 11.01,22.902 11.01,23.142L11.01,34.784C11.01,35.029 10.906,35.249 10.737,35.408C10.568,35.567 10.331,35.666 10.076,35.666C9.816,35.666 9.584,35.567 9.415,35.408L9.402,35.395C9.242,35.236 9.142,35.021 9.142,34.784L9.142,23.142ZM18.366,10.933C16.753,11.152 15.303,11.431 14.018,11.762C12.729,12.097 11.594,12.488 10.618,12.935C9.935,13.249 9.329,13.589 8.805,13.954C8.436,14.207 8.107,14.478 7.816,14.758L48.116,14.758C47.847,14.491 47.537,14.238 47.191,13.997C46.685,13.649 46.097,13.326 45.432,13.034C44.484,12.613 43.381,12.252 42.146,11.934C40.902,11.616 39.525,11.354 38.04,11.135C37.365,11.036 36.682,10.946 35.993,10.864L35.984,10.864C35.305,10.782 34.622,10.714 33.929,10.649C33.25,10.589 32.562,10.533 31.86,10.49C31.167,10.447 30.479,10.413 29.796,10.387C29.536,10.378 29.308,10.271 29.144,10.108C28.98,9.944 28.884,9.721 28.893,9.476L28.893,9.472C28.898,9.33 28.939,9.196 29.007,9.08C29.076,8.96 29.176,8.861 29.294,8.78C29.44,8.676 29.577,8.56 29.695,8.427C29.814,8.298 29.914,8.152 29.996,8.002C30.078,7.851 30.142,7.692 30.183,7.516C30.224,7.349 30.247,7.177 30.247,6.996C30.247,6.695 30.183,6.412 30.069,6.154C29.951,5.887 29.777,5.642 29.563,5.44C29.349,5.238 29.089,5.071 28.807,4.963C28.533,4.856 28.232,4.796 27.913,4.796C27.594,4.796 27.294,4.856 27.02,4.963C26.733,5.075 26.478,5.238 26.264,5.445C26.049,5.647 25.872,5.892 25.758,6.158C25.644,6.416 25.58,6.7 25.58,7C25.58,7.177 25.603,7.349 25.639,7.512C25.68,7.679 25.744,7.843 25.822,7.989C25.904,8.139 26.004,8.285 26.118,8.414C26.236,8.548 26.368,8.668 26.514,8.767C26.719,8.913 26.847,9.123 26.879,9.347C26.911,9.57 26.856,9.807 26.701,10C26.61,10.112 26.501,10.198 26.378,10.258C26.259,10.314 26.127,10.348 25.995,10.353L25.967,10.353L25.949,10.353C25.325,10.365 24.687,10.387 24.044,10.417C23.411,10.447 22.768,10.486 22.107,10.537C21.469,10.585 20.836,10.64 20.216,10.709C19.592,10.774 18.977,10.847 18.366,10.933ZM9.803,11.345C10.869,10.86 12.095,10.434 13.485,10.073C14.866,9.712 16.406,9.416 18.102,9.184C18.735,9.098 19.373,9.02 20.016,8.952C20.667,8.883 21.31,8.823 21.957,8.775C22.354,8.745 22.768,8.719 23.192,8.694C23.484,8.676 23.785,8.664 24.085,8.651C23.971,8.414 23.88,8.165 23.816,7.911C23.743,7.619 23.702,7.314 23.702,7C23.702,6.463 23.816,5.952 24.021,5.483C24.236,4.998 24.55,4.559 24.938,4.194C25.325,3.829 25.79,3.532 26.305,3.335C26.801,3.141 27.344,3.034 27.913,3.034C28.483,3.034 29.025,3.141 29.522,3.335C30.037,3.537 30.502,3.833 30.889,4.194C31.277,4.559 31.591,4.998 31.805,5.483C32.01,5.952 32.124,6.463 32.124,7C32.124,7.318 32.083,7.628 32.006,7.929C31.938,8.199 31.837,8.462 31.71,8.711C32.056,8.732 32.393,8.754 32.721,8.78C33.163,8.81 33.624,8.848 34.098,8.891C34.804,8.956 35.506,9.029 36.212,9.115C36.919,9.196 37.62,9.291 38.318,9.394C39.899,9.626 41.353,9.91 42.665,10.245C43.987,10.585 45.176,10.98 46.215,11.44C47.3,11.917 48.225,12.467 48.973,13.094C49.729,13.726 50.303,14.435 50.691,15.23C50.723,15.29 50.75,15.355 50.768,15.428C50.786,15.497 50.796,15.566 50.796,15.639C50.796,15.884 50.691,16.103 50.522,16.262L50.508,16.275C50.34,16.425 50.112,16.52 49.861,16.52L5.966,16.52C5.947,16.52 5.934,16.52 5.92,16.515C5.861,16.511 5.797,16.502 5.742,16.49C5.678,16.472 5.615,16.451 5.551,16.421C5.537,16.416 5.523,16.408 5.51,16.399C5.296,16.283 5.145,16.098 5.077,15.888C5.008,15.677 5.022,15.445 5.136,15.239C5.141,15.226 5.15,15.213 5.159,15.2C5.605,14.422 6.212,13.709 6.986,13.064C7.757,12.428 8.695,11.852 9.803,11.345ZM37.192,7.043C37.374,7.215 37.465,7.443 37.465,7.667C37.465,7.894 37.374,8.118 37.192,8.29C37.01,8.462 36.768,8.548 36.531,8.548C36.29,8.548 36.053,8.462 35.87,8.29C35.055,7.52 34.804,6.85 34.845,6.205C34.886,5.574 35.214,5.002 35.561,4.387C36.016,3.58 36.54,2.66 35.72,1.315L35.711,1.297C35.588,1.091 35.565,0.855 35.629,0.644C35.693,0.425 35.843,0.232 36.066,0.111C36.29,-0.009 36.545,-0.035 36.773,0.025C37.005,0.086 37.21,0.227 37.338,0.438C38.008,1.53 38.145,2.428 38.026,3.206C37.908,3.979 37.548,4.62 37.21,5.213C36.846,5.866 36.531,6.42 37.192,7.043ZM44.256,7.043C44.438,7.215 44.529,7.443 44.529,7.667C44.529,7.894 44.438,8.118 44.256,8.29C44.074,8.462 43.832,8.548 43.595,8.548C43.354,8.548 43.117,8.462 42.934,8.29C42.118,7.52 41.868,6.85 41.909,6.205C41.95,5.574 42.278,5.002 42.624,4.387C42.857,3.975 43.112,3.532 43.194,3.038C43.276,2.548 43.199,1.989 42.784,1.315C42.656,1.104 42.629,0.863 42.693,0.649C42.757,0.429 42.907,0.236 43.13,0.116C43.354,-0.005 43.609,-0.03 43.837,0.03C44.064,0.09 44.274,0.232 44.402,0.442C45.072,1.534 45.208,2.432 45.09,3.21C44.971,3.983 44.611,4.624 44.274,5.217C44.083,5.556 43.9,5.874 43.864,6.171C43.827,6.45 43.923,6.73 44.256,7.043ZM18.758,8.294C18.576,8.466 18.334,8.552 18.097,8.552C17.855,8.552 17.618,8.466 17.436,8.294C17.254,8.122 17.163,7.894 17.163,7.671C17.163,7.443 17.254,7.22 17.436,7.048C18.102,6.42 17.787,5.866 17.418,5.221C17.081,4.624 16.716,3.988 16.602,3.21C16.484,2.428 16.62,1.53 17.29,0.438C17.418,0.227 17.628,0.086 17.86,0.03C18.092,-0.026 18.343,-0.005 18.566,0.12C18.79,0.24 18.94,0.438 18.999,0.657C19.059,0.876 19.036,1.113 18.904,1.323C18.083,2.664 18.607,3.588 19.063,4.392C19.414,5.006 19.738,5.578 19.779,6.21C19.824,6.854 19.569,7.525 18.758,8.294Z" fill="#FFFFFF"/>
</svg>
