<svg width="34" height="40" viewBox="0 0 34 40" fill="none" xmlns="http://www.w3.org/2000/svg" xmlns:xlink="http://www.w3.org/1999/xlink">
<path d="M19.281,35.139C19.836,34.644 20.688,34.613 21.28,35.099C21.932,35.634 22.023,36.591 21.484,37.237C20.155,38.96 18.1,39.98 15.913,40L15.478,39.982C13.462,39.835 11.595,38.841 10.359,37.237L10.227,37.054C9.841,36.42 9.97,35.585 10.563,35.099C11.214,34.564 12.18,34.655 12.719,35.301C12.955,35.615 13.236,35.894 13.553,36.128C14.398,36.753 15.46,37.017 16.503,36.862C17.546,36.706 18.483,36.145 19.106,35.301L19.124,35.301L19.281,35.139ZM15.93,0C22.07,0 28.954,4.329 29.735,11.28L29.735,14.905C30.002,16.214 30.614,17.428 31.51,18.425C31.563,18.485 31.61,18.55 31.651,18.619C32.463,19.841 32.929,21.257 33,22.719L32.947,23.088C33.008,25.089 32.34,27.045 31.066,28.597C29.439,30.353 27.214,31.449 24.82,31.676C18.923,32.323 12.973,32.323 7.076,31.676C4.717,31.434 2.531,30.337 0.937,28.597C-0.359,27.067 -1.047,25.121 -0.998,23.124L-0.998,22.877C-0.9,21.372 -0.398,19.919 0.457,18.671L0.599,18.495C1.489,17.495 2.1,16.282 2.374,14.976L2.374,11.351L2.472,11.148C2.77,10.634 3.351,10.333 3.96,10.399C4.644,10.473 5.194,10.993 5.302,11.667L5.302,15.293C5.308,15.357 5.308,15.422 5.302,15.486C4.932,17.302 4.088,18.989 2.853,20.378C2.377,21.13 2.108,21.991 2.072,22.877L2.072,23.264C2.033,24.511 2.449,25.729 3.243,26.696C4.345,27.825 5.818,28.524 7.395,28.667C13.104,29.283 18.863,29.283 24.572,28.667C26.192,28.519 27.701,27.787 28.812,26.608C29.568,25.664 29.964,24.487 29.93,23.282L29.93,22.877C29.894,21.988 29.631,21.122 29.167,20.361C27.881,18.987 26.987,17.298 26.577,15.469C26.57,15.404 26.57,15.339 26.577,15.275L26.577,11.632C26.062,6.318 20.721,3.027 16.072,3.027C14.096,3.022 12.152,3.526 10.43,4.487L10.219,4.592C9.785,4.767 9.289,4.737 8.877,4.499C8.396,4.222 8.105,3.707 8.118,3.155C8.131,2.603 8.446,2.102 8.939,1.848C11.073,0.652 13.479,0.016 15.93,0Z" fill="#6C7894"/>
</svg>
